<svg version="1.1" id="Layer_1" xmlns="http://www.w3.org/2000/svg" xmlns:xlink="http://www.w3.org/1999/xlink" x="0px" y="0px"
	 width="100%" viewBox="0 0 1024 1024" enable-background="new 0 0 1024 1024" xml:space="preserve">
<path fill="var(--primary-color)" opacity="1.000000" stroke="none" 
	d="
M624.211731,663.368774 
	C623.197266,651.365906 617.754517,641.330933 610.540161,631.995422 
	C605.387024,625.327148 598.207886,621.173218 591.366455,616.063171 
	C590.991943,616.002502 590.905884,615.927185 590.832886,615.768677 
	C590.512085,615.735596 590.264343,615.861084 590.009888,615.992188 
	C590.003235,615.997742 589.990234,616.013062 589.990234,616.013062 
	C579.059143,612.939453 568.595154,607.793396 556.502380,607.899292 
	C558.348022,607.068726 560.117554,605.920715 562.051208,605.456726 
	C581.389160,600.817200 595.525940,588.523438 608.808228,574.604797 
	C614.902527,568.218445 618.392090,560.361328 621.732422,552.762939 
	C625.255920,544.747986 627.051331,535.604492 627.765808,526.805054 
	C629.007019,511.518585 627.233704,496.380005 620.539490,482.222351 
	C618.895508,478.745392 617.428772,475.128296 615.342529,471.926147 
	C604.053955,454.599518 592.596375,437.382996 581.491699,420.574585 
	C577.644043,421.353760 574.671143,421.955811 571.532715,422.591400 
	C571.080750,424.763489 570.562988,426.995544 570.157410,429.247833 
	C568.763367,436.989349 568.778320,436.995667 561.275513,436.994446 
	C538.282959,436.990692 515.290466,436.988647 492.297913,436.975372 
	C485.483582,436.971466 485.010712,436.469055 484.998932,429.466827 
	C484.997528,428.633759 484.895874,427.785034 485.018311,426.970276 
	C485.613739,423.008240 483.829681,422.313904 480.046997,421.782684 
	C472.810455,420.766418 469.380920,424.545105 465.985565,429.886017 
	C457.196075,443.711853 447.880341,457.203644 439.116516,471.045166 
	C431.376740,483.269379 427.951721,497.003845 427.066315,511.287476 
	C426.262360,524.257385 427.489471,537.110229 431.346405,549.618286 
	C431.615356,550.490417 431.622314,551.443359 431.820526,552.852295 
	C427.969940,551.895874 424.501312,551.310425 421.225739,550.170288 
	C410.230286,546.342773 399.258423,542.437927 388.360413,538.342102 
	C367.773529,530.604797 350.740051,517.665771 336.094696,501.541046 
	C319.150726,482.885559 308.011749,461.170105 303.098755,436.367218 
	C303.044586,436.093781 303.308868,435.757294 303.734894,435.461731 
	C304.160095,435.749786 304.274872,436.026367 304.389709,436.302917 
	C304.510742,436.213928 304.741425,436.052765 304.737091,436.046234 
	C304.502686,435.690094 304.248535,435.346954 303.996399,435.002472 
	C303.651031,431.608704 304.434479,427.423645 302.725525,424.985748 
	C299.159576,419.898834 301.224152,414.710449 301.222656,409.748566 
	C301.220764,403.578857 304.335114,397.202728 303.484985,391.292419 
	C302.493164,384.396729 304.710815,378.507812 306.104492,372.370941 
	C307.853607,364.669037 310.039062,356.921509 313.242523,349.731079 
	C317.291351,340.643219 321.897308,331.648621 327.482666,323.444122 
	C332.974976,315.376251 340.340149,308.609741 346.254608,300.796143 
	C353.711395,290.944946 363.259766,283.516174 373.148407,276.556274 
	C380.281281,271.535980 387.961060,267.154694 395.798492,263.306244 
	C407.271271,257.672699 418.972443,252.441895 430.845856,247.716873 
	C435.720581,245.776962 441.352081,245.824524 446.537354,244.552414 
	C450.841583,243.496475 454.978241,241.772354 459.228424,240.472610 
	C460.469421,240.093094 461.845062,240.153778 463.630615,240.143707 
	C464.185944,240.327011 464.269684,240.379288 464.353455,240.431549 
	C464.233124,240.289566 464.112793,240.147598 463.992432,240.005646 
	C471.943695,239.015182 479.894073,238.017227 487.848541,237.053085 
	C488.318878,236.996078 488.931152,237.060303 489.293793,237.322235 
	C494.494568,241.079086 491.123962,246.552185 491.971497,251.186798 
	C492.445770,253.780151 490.833740,254.554871 488.493896,255.959900 
	C481.250488,260.309418 473.857086,264.967743 468.040985,270.976532 
	C462.364502,276.841156 457.859497,284.166412 454.183746,291.521820 
	C451.868591,296.154541 451.870178,302.000183 451.119568,307.342041 
	C450.521820,311.595917 449.769012,315.964172 450.151184,320.185150 
	C450.634369,325.522003 447.886566,327.399292 443.555939,328.243164 
	C433.887024,330.127411 425.618256,335.069977 417.435944,340.149139 
	C405.342133,347.656250 395.557159,357.685181 386.073517,368.218597 
	C376.659302,378.674927 371.894836,391.367249 369.044556,404.364960 
	C367.532806,411.258820 370.026581,419.707123 372.732269,426.668549 
	C375.718658,434.352325 381.451538,440.763824 389.541840,444.134674 
	C397.994843,447.656555 406.442902,451.223511 415.054443,454.322327 
	C423.425110,457.334534 428.198944,454.817505 433.039215,447.010925 
	C438.138641,438.786377 443.919800,430.984467 450.064209,422.035004 
	C447.628906,421.602783 445.877991,421.033844 444.123352,421.022217 
	C432.127258,420.942749 420.130341,420.998627 408.133789,420.972046 
	C402.479614,420.959534 400.261383,418.295410 400.872314,412.624695 
	C401.028870,411.171631 400.752808,409.660065 400.583099,408.186035 
	C400.136261,404.305908 402.995483,399.684357 406.578064,399.126831 
	C410.331787,398.542725 414.151886,398.049347 417.939728,398.071442 
	C460.054962,398.317291 502.169128,398.765625 544.284485,398.964844 
	C576.694946,399.118164 609.112427,399.309509 641.513367,398.732666 
	C648.109680,398.615265 652.112488,400.928711 655.958984,405.650818 
	C656.000000,406.000000 656.002441,405.996887 655.834351,406.077545 
	C655.598633,406.260254 655.452148,406.422668 655.476440,406.454346 
	C655.616577,406.637421 655.797058,406.789703 655.982666,406.973877 
	C656.001465,406.995361 656.042236,407.035431 656.042236,407.035431 
	C658.640869,411.154541 657.708801,414.377411 654.569702,418.120148 
	C651.915649,421.284515 648.825256,420.564056 645.841919,420.894470 
	C642.385559,421.277283 638.854370,420.985199 635.355713,420.985291 
	C625.583923,420.985535 615.812134,420.985352 606.040344,420.985352 
	C605.829468,421.514374 605.618591,422.043396 605.407715,422.572418 
	C607.386108,425.582672 609.388000,428.577728 611.338318,431.606049 
	C616.801453,440.089172 622.015442,448.747040 627.834167,456.977966 
	C629.550598,459.405914 632.952759,460.642151 635.660400,462.774536 
	C635.824341,463.081390 635.910278,463.038239 635.996155,462.995056 
	C643.648621,465.445496 651.358276,467.733490 658.935791,470.397156 
	C665.122437,472.571899 671.225769,475.027161 677.222290,477.682770 
	C680.831848,479.281281 684.166077,481.501434 687.674683,483.777893 
	C687.815674,484.074066 687.906006,484.034576 687.996399,483.995117 
	C694.921204,488.404144 702.009033,492.579468 708.736694,497.271332 
	C722.347595,506.763641 732.886597,519.299744 742.191040,532.834045 
	C745.267395,537.308899 746.973267,542.709961 749.473877,547.601562 
	C751.418030,551.404663 754.562134,554.851074 755.513367,558.850769 
	C757.401550,566.790466 763.361511,573.313416 762.439026,582.370300 
	C761.970337,586.971069 764.560852,591.880676 765.746155,596.656189 
	C765.904236,597.292969 766.006470,597.962280 766.006897,598.616638 
	C766.012085,606.524414 766.445251,614.467773 765.827026,622.327942 
	C765.389771,627.887695 762.371643,633.371643 762.545959,638.824219 
	C762.848694,648.290222 759.723877,656.770813 756.318909,664.985901 
	C751.608582,676.350708 745.369141,687.074646 739.957703,698.157593 
	C731.625427,715.222900 718.717957,728.659302 705.057495,741.289307 
	C692.042725,753.322327 677.881653,763.944153 661.147278,770.618896 
	C656.365845,772.526062 651.943481,775.318542 647.205017,777.352112 
	C640.689880,780.148254 634.030640,782.608582 626.539124,785.565674 
	C625.902649,781.667419 625.119507,778.972656 625.080933,776.267334 
	C624.921692,765.114868 624.988342,753.959290 624.988770,741.905396 
	C624.996277,739.008728 624.987000,737.011536 625.145752,734.929260 
	C625.385864,734.743408 625.540100,734.585266 625.516479,734.551453 
	C625.382324,734.359680 625.205750,734.197632 625.015259,733.555908 
	C625.026917,720.697937 625.066956,708.309631 625.385742,695.624268 
	C625.774780,686.564880 625.933838,677.802490 625.944458,669.039917 
	C625.946167,667.664795 625.274597,666.288879 624.849365,664.695923 
	C624.593445,664.108643 624.402588,663.738708 624.211731,663.368774 
M575.825867,610.242432 
	C575.881104,610.399475 575.936401,610.556458 575.991638,610.713501 
	C576.043945,610.555359 576.096191,610.397278 575.825867,610.242432 
M628.503296,507.600159 
	C628.503296,507.600159 628.443054,507.482300 628.503296,507.600159 
M625.535278,491.410187 
	C625.535278,491.410187 625.599060,491.525543 625.535278,491.410187 
z"/>
<path fill="var(--primary-color)" opacity="1.000000" stroke="none" 
	d="
M478.940247,704.921021 
	C471.913269,708.413635 465.171204,711.649353 458.617249,715.229370 
	C454.043427,717.727783 450.749603,716.600403 448.214691,712.431519 
	C440.169464,699.200500 431.298065,686.132019 429.407806,670.385864 
	C428.176788,660.131226 428.815308,649.622009 429.008698,639.234131 
	C429.252594,626.134216 431.214783,613.067627 436.245728,601.089111 
	C440.764374,590.330383 443.071503,578.217163 451.992432,569.637207 
	C453.281616,568.397278 455.291992,567.907166 456.968628,567.070068 
	C457.429901,568.584290 458.282379,570.097412 458.286469,571.612854 
	C458.306854,579.191406 458.061615,586.770081 457.989227,594.349487 
	C457.796631,614.525024 464.682892,632.226624 476.696869,648.195129 
	C483.527740,657.274475 492.017120,663.944641 502.556061,668.374084 
	C510.455261,671.693970 517.350891,669.109497 525.278015,666.548035 
	C511.215698,658.566223 507.178467,647.039246 510.462677,631.819885 
	C512.533325,632.426208 514.405762,632.612610 515.890503,633.470276 
	C523.452515,637.838684 531.052979,642.171082 538.331177,646.983093 
	C540.679749,648.535828 542.345825,651.355286 543.858887,653.874634 
	C545.523010,656.645569 546.686523,657.919067 550.404419,656.245605 
	C554.344543,654.472168 559.010071,654.310364 564.111511,653.294861 
	C561.176758,647.014404 555.913452,641.531006 557.319336,632.846436 
	C561.091187,634.118774 565.063721,634.685547 568.136108,636.655823 
	C574.582336,640.789673 581.055603,645.139893 586.550476,650.409912 
	C590.359131,654.062744 592.785095,659.275452 595.343018,664.051453 
	C596.267639,665.777771 595.900269,668.260925 595.911865,670.399841 
	C595.955688,678.483276 595.900879,686.567200 595.907043,694.650940 
	C595.911377,700.315979 595.973999,705.981018 595.977417,711.646057 
	C595.988525,730.143921 595.993591,748.641724 595.980530,767.139587 
	C595.976562,772.718689 594.875366,773.964844 589.319397,773.970337 
	C545.491211,774.013672 501.662994,774.007446 457.834808,773.983154 
	C453.498322,773.980774 451.030396,771.626038 451.406250,767.623352 
	C452.280121,758.317017 453.556030,749.179077 458.890076,741.000061 
	C463.204193,734.384949 470.022858,731.380981 476.255005,727.468323 
	C482.742157,723.395630 489.750946,720.021118 495.739777,715.330383 
	C500.343353,711.724487 499.987213,708.028259 496.596039,704.124390 
	C493.433167,700.483337 487.726562,699.760742 483.662201,702.407410 
	C482.276001,703.310059 480.761444,704.015503 478.940247,704.921021 
M475.311859,758.271301 
	C479.910736,758.568909 484.506866,759.058105 489.109070,759.123901 
	C498.518463,759.258606 507.931458,759.193726 517.341736,759.095764 
	C517.895325,759.089966 518.438293,758.062012 518.510620,757.108276 
	C512.984619,750.039795 505.888824,745.786377 496.830933,745.161987 
	C487.683441,744.531311 478.015686,747.806213 475.311859,758.271301 
M572.205994,686.559387 
	C566.771301,673.305176 549.583252,672.077698 540.722229,676.156555 
	C531.417358,680.439575 524.693115,692.165955 526.916321,700.518494 
	C533.547791,700.760193 538.856750,699.252808 542.052551,692.373230 
	C543.966248,688.253723 549.665649,687.914185 553.854980,690.450317 
	C558.921204,693.517273 560.504578,697.214966 557.828491,702.127441 
	C555.926086,705.619568 552.881226,708.489319 550.148193,711.882874 
	C550.995483,712.098328 552.630493,712.838989 554.284363,712.884033 
	C570.185547,713.316772 577.338928,699.066589 572.205994,686.559387 
z"/>
<path fill="var(--primary-color)" opacity="1.000000" stroke="none" 
	d="
M749.462036,364.750061 
	C751.713623,374.119690 754.280640,383.075256 755.694092,392.209290 
	C756.850098,399.680237 756.523132,407.371735 757.063354,414.950500 
	C757.360229,419.115448 755.225891,420.917694 751.552307,420.935547 
	C732.232544,421.029358 712.911804,421.030701 693.591980,420.937042 
	C688.569824,420.912720 687.215393,416.879028 687.052734,413.074219 
	C686.262329,394.585938 677.581604,379.690704 666.348938,365.829559 
	C663.454529,362.257843 661.215149,358.078827 657.982056,354.878723 
	C654.524536,351.456482 650.326782,348.749420 646.310364,345.932251 
	C640.660461,341.969360 635.212463,337.509094 629.066101,334.519836 
	C622.298950,331.228699 614.764587,329.546234 607.745239,326.714996 
	C606.405151,326.174530 605.104675,323.529633 605.148621,321.892212 
	C605.419250,311.812683 603.989990,302.085724 600.249878,292.710724 
	C593.979065,276.992645 583.557312,265.014954 568.158020,257.751831 
	C564.711487,256.126251 563.614075,254.016068 563.933899,250.409683 
	C564.226746,247.106781 563.764038,243.736923 564.055664,240.433792 
	C564.152588,239.335754 565.566101,237.453003 566.359863,237.462219 
	C571.917969,237.526901 577.471252,237.993286 583.125671,238.337158 
	C582.727661,238.827774 582.363220,239.276978 581.945068,239.792496 
	C582.454102,239.860794 582.918701,239.972504 583.384644,239.978455 
	C595.202454,240.129623 606.751160,241.467331 617.691772,246.494202 
	C620.404175,247.740433 623.849854,247.315613 626.685486,248.383682 
	C632.875793,250.715317 638.876282,253.546783 644.982483,256.106934 
	C648.745056,257.684479 652.844849,258.663025 656.297852,260.735779 
	C667.126953,267.236115 678.193054,273.492584 688.304321,281.005035 
	C707.085510,294.959045 722.887817,311.964508 734.544067,332.348389 
	C739.393066,340.828003 742.662964,350.209076 746.680054,359.167175 
	C747.477966,360.946472 748.408997,362.666077 749.462036,364.750061 
z"/>
<path fill="var(--primary-color)" opacity="1.000000" stroke="none" 
	d="
M344.000000,600.014648 
	C363.164276,600.015503 381.828552,600.000305 400.492798,600.027039 
	C406.101227,600.035034 407.515869,602.080261 404.929810,607.093811 
	C395.795319,624.802734 393.583771,643.758179 395.135223,663.217590 
	C396.288696,677.684937 399.519836,691.676941 406.336792,704.801880 
	C411.836548,715.390808 418.017792,725.343445 426.448578,733.825500 
	C428.484009,735.873352 429.573059,738.034973 427.650299,740.851562 
	C423.021942,747.631592 421.362122,755.392212 421.104645,763.378845 
	C420.924194,768.976624 421.707581,774.600769 421.931244,780.218323 
	C422.032959,782.772644 421.457642,784.505371 418.118378,783.142151 
	C395.968262,774.099854 375.411072,762.561035 357.159637,746.833801 
	C344.124237,735.601257 332.806549,722.916931 323.082672,708.917053 
	C310.290741,690.499939 301.734161,670.113342 296.880890,648.102417 
	C293.696228,633.659119 293.956207,619.125488 294.089996,604.552002 
	C294.130951,600.092041 297.781769,600.041504 301.005524,600.032166 
	C315.170258,599.990967 329.335144,600.014587 344.000000,600.014648 
z"/>
<path fill="var(--primary-color)" opacity="1.000000" stroke="none" 
	d="
M470.191925,378.902283 
	C455.447174,378.902283 440.702423,378.902283 425.957642,378.902283 
	C425.821045,378.314911 425.684418,377.727509 425.547791,377.140137 
	C431.582275,370.287903 438.694580,364.550720 446.876251,360.533325 
	C457.142212,355.492523 467.878967,351.416992 478.276489,346.629456 
	C479.602692,346.018799 480.832550,343.648651 480.873444,342.061859 
	C481.062958,334.706146 481.066406,327.324127 480.621704,319.982697 
	C480.401215,316.342957 482.271423,314.597839 485.011932,313.991913 
	C488.524689,313.215210 492.233765,313.022400 495.850830,313.076294 
	C508.640259,313.266846 521.425049,313.778656 534.214539,313.959564 
	C545.373779,314.117432 556.537109,313.966187 567.698425,314.005585 
	C572.750488,314.023376 574.850830,316.170319 575.062622,321.225983 
	C575.409119,329.498260 575.788147,337.769135 576.099487,344.818665 
	C589.260193,351.291107 601.819702,357.248596 614.146057,363.654785 
	C618.191833,365.757507 621.769958,368.861725 625.286133,371.834229 
	C626.797180,373.111633 627.605713,375.220093 628.733398,376.950989 
	C626.644287,377.601654 624.555176,378.252289 621.748535,378.620850 
	C620.374329,378.245667 619.717834,378.071808 619.061096,378.071014 
	C575.319153,378.018738 531.577087,377.943848 487.835236,377.984161 
	C481.953857,377.989594 476.073029,378.581787 470.191925,378.902283 
z"/>
<path fill="var(--primary-color)" opacity="1.000000" stroke="none" 
	d="
M532.728882,512.981689 
	C540.933716,512.228943 545.907288,507.226685 550.256287,501.389496 
	C554.694885,495.432037 558.788391,493.490234 564.136230,496.118347 
	C566.246826,497.155487 568.552551,499.992584 568.817139,502.239960 
	C570.879272,519.752136 561.997498,534.703125 545.669128,541.519226 
	C542.854553,542.694153 542.009033,544.127441 541.923218,547.012878 
	C541.657166,555.952209 541.125366,564.885010 540.603088,573.814819 
	C540.348816,578.163208 535.860901,583.344055 531.592773,583.916809 
	C522.641296,585.117981 511.551727,580.931519 512.892456,568.691345 
	C513.613281,562.110596 512.882202,555.382080 513.068787,548.727539 
	C513.191406,544.355774 511.535126,542.246033 507.251678,540.557739 
	C499.077606,537.335876 493.751221,530.487793 488.743835,523.485840 
	C483.845764,516.636719 486.396362,508.857727 485.917969,501.513245 
	C485.612793,496.828278 492.915375,493.320465 497.122711,495.783661 
	C499.243896,497.025513 501.457458,498.524048 502.888763,500.455292 
	C508.044067,507.411194 514.406860,512.501526 523.096558,513.787842 
	C526.073364,514.228455 529.253967,513.293091 532.728882,512.981689 
z"/>
<path fill="var(--primary-color)" opacity="1.000000" stroke="none" 
	d="
M551.981201,796.970825 
	C553.701782,797.314697 555.419983,797.941223 557.143433,797.956177 
	C567.794800,798.048218 578.447266,797.987854 589.099426,798.007996 
	C595.377136,798.019836 596.003052,798.643311 596.003906,804.641479 
	C596.004639,809.801086 595.738281,814.977783 596.076904,820.114807 
	C596.335327,824.035889 593.824036,825.539001 591.092407,825.551331 
	C577.051819,825.614868 563.009827,825.213135 548.967285,825.086914 
	C545.502563,825.055786 542.033569,825.608093 538.567322,825.598755 
	C534.956909,825.588989 531.348511,825.068115 527.737427,825.043762 
	C515.920715,824.964172 504.103180,825.001221 492.285950,825.008911 
	C486.715637,825.012573 480.957855,825.962952 475.618073,824.864929 
	C467.179199,823.129578 461.017731,817.936829 456.575317,810.105164 
	C454.248016,806.002380 451.444855,802.545532 452.529968,797.174927 
	C453.270111,796.870300 453.646667,796.949707 454.317017,797.321655 
	C460.357910,797.739563 466.106537,798.003418 471.851532,797.940491 
	C475.551147,797.900085 479.245514,797.379578 483.411499,797.015869 
	C494.934296,796.989197 505.987823,797.020935 517.336060,797.340759 
	C524.726257,797.458069 531.821716,797.287231 539.262329,797.067017 
	C540.071655,797.010681 540.535889,797.003784 541.253052,797.278137 
	C543.651245,797.398865 545.796570,797.238464 548.345215,797.046814 
	C549.826111,797.000732 550.903687,796.985779 551.981201,796.970825 
z"/>
<path fill="var(--primary-color)" opacity="1.000000" stroke="none" 
	d="
M534.000000,296.003662 
	C521.679565,296.004303 509.858337,296.073334 498.039642,295.931824 
	C496.265717,295.910583 494.503601,294.904083 492.736023,294.353363 
	C493.429291,292.491882 493.722137,290.318665 494.886108,288.823639 
	C499.565033,282.813873 506.134186,280.643799 513.467102,281.065582 
	C517.788879,281.314148 519.165894,280.098297 519.127014,275.576080 
	C518.903625,249.606354 518.997253,223.633728 519.019165,197.662140 
	C519.026062,189.489304 523.904297,186.145844 531.397156,188.960861 
	C535.458679,190.486755 536.003113,193.701950 535.999268,197.403732 
	C535.972412,223.208847 536.143677,249.015793 535.852966,274.817657 
	C535.794373,280.013397 537.292969,281.281525 542.273071,281.099884 
	C552.670044,280.720764 561.489136,286.803986 563.860413,296.003662 
	C553.932800,296.003662 544.216370,296.003662 534.000000,296.003662 
z"/>
</svg>
